{"title":"(18+) Bedroom (2013) Hindi Movie DvDRip -AshishRocks- { DAKU RG","uid":9464671,"size":553868481,"categoryP":"video","categoryS":"movies","magnet":"?xt=urn:btih:f85f946a2b013fcb66e9b6071d9931b4d1c8d3be&amp;dn=%2818%2B%29+Bedroom+%282013%29+Hindi+Movie+DvDRip+-AshishRocks-+%7B+DAKU+RG+&amp;tr=udp%3A%2F%2Ftracker.openbittorrent.com%3A80&amp;tr=udp%3A%2F%2Fopen.demonii.com%3A1337&amp;tr=udp%3A%2F%2Ftracker.coppersurfer.tk%3A6969&amp;tr=udp%3A%2F%2Fexodus.desync.com%3A6969","seeders":2,"leechers":1,"uploader":"ashish.p","files":3,"time":1389434096,"description":"General\n\nComplete name : (18+) Bedroom (2013) Hindi Movie DvDRip -AshishRocks- { DAKU RG }\nFormat : MPEG-4\nFormat profile : Base Media\nCodec ID : isom\nFile size :\t528 MiB\nDuration :\t 1h 44mn\nOverall bit rate : 707 Kbps\nWriting application :\tLavf54.29.104\n\nVideo\n\nID : 1\nFormat : AVC\nFormat/Info : Advanced Video Codec\nFormat profile : &lt;a class=&quot;__cf_email__&quot; href=&quot;/cdn-cgi/l/email-protection&quot; data-cfemail=&quot;e3ae828a8da3afd0cdd3&quot;&gt;[email&amp;#160;protected]&lt;/a&gt;&lt;script cf-hash='f9e31' type=&quot;text/javascript&quot;&gt;\n/* &lt;![CDATA[ */!function(){try{var t=&quot;currentScript&quot;in document?document.currentScript:function(){for(var t=document.getElementsByTagName(&quot;script&quot;),e=t.length;e--;)if(t[e].getAttribute(&quot;cf-hash&quot;))return t[e]}();if(t&amp;&amp;t.previousSibling){var e,r,n,i,c=t.previousSibling,a=c.getAttribute(&quot;data-cfemail&quot;);if(a){for(e=&quot;&quot;,r=parseInt(a.substr(0,2),16),n=2;a.length-n;n+=2)i=parseInt(a.substr(n,2),16)^r,e+=String.fromCharCode(i);e=document.createTextNode(e),c.parentNode.replaceChild(e,c)}}}catch(u){}}();/* ]]&gt; */&lt;/script&gt;\nFormat settings, CABAC :\tYes\nFormat settings, ReFrames : 3 frames\nCodec ID : avc1\nCodec ID/Info : Advanced Video Coding\nDuration :\t1h 44mn\nBit rate : 575 Kbps\nWidth : 600 pixels\nHeight : 480 pixels\nDisplay aspect ratio : 5:4\nFrame rate mode : Constant\nFrame rate : 25.000 fps\nColor space : YUV\nChroma subsampling : 4:2:0\nBit depth : 8 bits\nScan type : Progressive\nBits/(Pixel*Frame) :\t0.080\nStream size : 430 MiB (81%)\n\nAudio\n\nID :\t2\nFormat : AAC\nFormat/Info : Advanced Audio Codec\nFormat profile : LC\nCodec ID : 40\nDuration :\t1h 44mn\nBit rate mode :\tConstant\nBit rate : 126 Kbps\nChannel(s) : 2 channels\nChannel positions :\tFront: L R\nSampling rate : 44.1 KHz\nCompression mode : Lossy\nStream size : 93.9 MiB (18%)","torrent":{"xt":"urn:btih:f85f946a2b013fcb66e9b6071d9931b4d1c8d3be","amp;dn":"%2818%2B%29+Bedroom+%282013%29+Hindi+Movie+DvDRip+-AshishRocks-+%7B+DAKU+RG+","amp;tr":["udp%3A%2F%2Ftracker.openbittorrent.com%3A80","udp%3A%2F%2Fopen.demonii.com%3A1337","udp%3A%2F%2Ftracker.coppersurfer.tk%3A6969","udp%3A%2F%2Fexodus.desync.com%3A6969"],"infoHash":"f85f946a2b013fcb66e9b6071d9931b4d1c8d3be","infoHashBuffer":{"type":"Buffer","data":[248,95,148,106,43,1,63,203,102,233,182,7,29,153,49,180,209,200,211,190]},"announce":[],"urlList":[]}}